<svg width="160" height="40" viewBox="0 0 160 40" fill="none" xmlns="http://www.w3.org/2000/svg">
  <g transform="translate(10, 5)">
    <!-- Letter A -->
    <path d="M5 30 L15 5 L25 30 M10 20 L20 20" stroke="#ffffff" stroke-width="2.5" stroke-linecap="round" stroke-linejoin="round" fill="none"/>
    <path d="M6 28 L14 7 L22 28 M11 18 L19 18" stroke="#ffffff" stroke-width="1.5" stroke-linecap="round" stroke-linejoin="round" fill="none" opacity="0.7"/>
    <path d="M7 26 L15 9 L23 26 M12 19 L18 19" stroke="#ffffff" stroke-width="1" stroke-linecap="round" stroke-linejoin="round" fill="none" opacity="0.5"/>

    <!-- Letter X -->
    <path d="M35 5 L55 30 M55 5 L35 30" stroke="#ffffff" stroke-width="2.5" stroke-linecap="round" stroke-linejoin="round" fill="none"/>
    <path d="M37 7 L53 28 M53 7 L37 28" stroke="#ffffff" stroke-width="1.5" stroke-linecap="round" stroke-linejoin="round" fill="none" opacity="0.7"/>
    <path d="M39 9 L51 26 M51 9 L39 26" stroke="#ffffff" stroke-width="1" stroke-linecap="round" stroke-linejoin="round" fill="none" opacity="0.5"/>
  </g>

  <!-- Axie Studio text -->
  <text x="80" y="25" font-family="Arial, sans-serif" font-size="14" font-weight="bold" fill="#ffffff">
    Axie Studio
  </text>
</svg>
